<?xml version="1.0" encoding="UTF-8"?>
<svg xmlns="http://www.w3.org/2000/svg" viewBox="0 0 86.46 121.42">
  <defs>
    <style>
      .cls-1 {
        fill: #ed2024;
      }

      .cls-2 {
        fill: #f7941d;
      }

      .cls-3 {
        fill: #9e1f63;
      }

      .cls-4 {
        fill: #662d91;
      }

      .cls-5 {
        fill: #010101;
      }
    </style>
  </defs>
  <g id="basebody">
    <g id="SVGRepo_iconCarrier" data-name="SVGRepo iconCarrier">
      <path class="cls-5" d="M50.73,28.06c-.45-2.46.1-5.16.1-5.16,1.5-1.2,2.1-4.4,2.1-4.4,1.89-1.92,2.7-3.71,2.15-4.47-.12-.16-.46-.5-1.55-.43-.1,0-.1-.3,0-.5C55.03.6,44.03,0,44.03,0h-1.7s-11.1.6-9.5,13.1v.5l-.92.27c-.29.16-.44.34-.53.51-.49.9.33,2.53,2.05,4.03,0,0,.6,3.2,2.1,4.4,0,0,.57,2.77.08,5.26h15.13Z"/>
      <path class="cls-5" d="M81.53,102.2c-1.2-1.5-2.8-3.6-3.2-4.8-.7-2.1-1.3-8.7-1.3-8.7-.2-7.8-2.2-11.2-2.2-11.2-3.3-5.3-3.9-15.1-3.9-15.1v-16.6c-1.3-11.3-9.7-11.4-9.7-11.4-8.5-1.3-9.6-4-9.6-4-.46-.67-.74-1.49-.9-2.34h-15.13c-.16.82-.43,1.6-.88,2.24,0,0-1.2,2.7-9.6,4,0,0-8.4,0-9.5,11.4l-.2,16.6s-.6,9.9-3.9,15.1c0,0-1.9,3.4-2.1,11.2,0,0-.6,6.6-1.3,8.7-.5,1.2-2,3.3-3.2,4.8-2.4,3-6.5,9.2-4.3,10,0,0,1.7.2,3.9-4.3,0,0,0,1.7-1.8,6.6-.3.9-1.8,5.6.6,3.9,0,0,1.1-.8,2.6-5.6,0,0-.8,8.1,0,8.5,1.1.6,1.8-1,2.3-8.1,0,0,.5-2.3.8,6.4,0,.5.7,2.7,1.6.8.8-1.6.4-5.9.4-7.3,0,0,1,5.5,1.9,5.5,0,0,1.1,1.3.6-5.6,0-1.1.3-3.4.4-4.1v-2.6c.1,0-.2-3-.2-4.3s1.1-4.4,3.9-8.7c0,0,5.9-10.5,5.5-17.3,0,0,0-6.5,2.3-10.2,0,0,1.7,18.5.5,23.7,0,0-5.3,12.8-4.1,22.3.16,1.24.34,2.72.53,4.36h41.78c.18-1.59.35-3.05.48-4.26,1.2-9.5-4.1-22.3-4.1-22.3-1.2-5.2.5-23.7.5-23.7,2.4,3.7,2.3,10.2,2.3,10.2-.4,6.9,5.5,17.3,5.5,17.3,2.8,4.3,3.9,8.4,3.9,8.7,0,1.2-.3,4.3-.3,4.3v2.6c.2.7.5,3,.5,4.1-.4,6.9.6,5.6.6,5.6.9,0,1.9-5.5,1.9-5.5,0,1.4-.3,5.7.4,7.3.9,1.9,1.6-.3,1.6-.8.2-8.7.8-6.4.8-6.4.5,7.1,1.1,8.7,2.3,8.1.9-.4,0-8.5,0-8.5,1.5,4.8,2.6,5.6,2.6,5.6,2.4,1.7.9-3,.6-3.9-1.8-4.9-1.8-6.6-1.8-6.6,2.2,4.4,3.9,4.3,3.9,4.3,2.2-.7-1.9-7-4.3-10Z"/>
    </g>
  </g>
  <g id="chest">
    <g id="SVGRepo_iconCarrier-2" data-name="SVGRepo iconCarrier">
      <path class="cls-3" d="M61.28,38.83c-.17-1.34-.36-2.68-.56-4.02-.04-.17-.08-.34-.12-.51-7.91-1.33-8.97-3.89-8.97-3.89-.46-.67-.74-1.49-.9-2.34h-15.13c-.16.82-.43,1.6-.88,2.24,0,0-1.19,2.66-9.44,3.97v31.33c.02.07.04.14.06.2,0,.16.01.32.02.48.06.24.11.48.17.72.2,2.45.63,7.96.77,13.05,10.94,0,22.87,1.98,33.82,1.01.15-7.03.9-15.27.9-15.27.09.14.17.3.26.45v-27.43Z"/>
    </g>
    <g id="_lungs_" data-name="&amp;lt;lungs&amp;gt;">
      <path class="cls-2" d="M46.27,45.12c-1.66,0-1.74-.62-1.74-1.82v-6.52c0-.83-.59-1.51-1.31-1.51s-1.31.68-1.31,1.51v6.52c0,1.19-.08,1.82-1.74,1.82-.12,0-.22.11-.22.25v2.52c0,.14.1.25.22.25,1.29,0,2.32-.34,3.04-1.02.73.68,1.75,1.02,3.05,1.02.12,0,.22-.11.22-.25v-2.52c0-.14-.1-.25-.22-.25Z"/>
      <path class="cls-2" d="M40.72,51.85c-.15-1.59-.31-3.24-.31-4.84,0-4.05-.38-9.44-3.7-9.44-4.03,0-7.43,12.37-7.43,20.14,0,.25-.03,6.02,1.34,7.62.25.29.53.44.85.44.82,0,1.23-.36,1.8-.87.71-.63,1.68-1.5,4.15-2.32,4.19-1.4,3.75-5.93,3.29-10.73Z"/>
      <path class="cls-2" d="M57.17,57.71c0-7.77-3.4-20.14-7.42-20.14-3.31,0-3.7,5.39-3.7,9.44,0,1.6-.16,3.25-.31,4.84-.46,4.8-.9,9.33,3.29,10.73,2.47.82,3.44,1.69,4.15,2.32.57.5.98.87,1.8.87.31,0,.6-.15.84-.44,1.37-1.6,1.34-7.37,1.34-7.62Z"/>
    </g>
  </g>
  <g id="head">
    <g id="SVGRepo_iconCarrier-3" data-name="SVGRepo iconCarrier">
      <path class="cls-1" d="M51.03,22.87c1.49-1.21,2.06-4.41,2.06-4.41,2.47-1.89,2.34-4.66,1.21-4.63-.91.02-.71-.73-.71-.73C55.13.64,44.08,0,44.08,0h-1.69s-11.06.64-9.52,13.09c0,0,.21.76-.72.73-1.14-.03-1.24,2.74,1.22,4.63,0,0,.57,3.21,2.06,4.41,0,0,.56,2.73.12,5.19h15.38c-.45-2.46.12-5.19.12-5.19Z"/>
    </g>
  </g>
  <g id="lips">
    <path class="cls-4" d="M47.27,20.24c-.19-.03-.47-.14-.76-.27-.53-.23-1.14-.48-1.79-.48-.86,0-1.33.17-1.5.25-.18-.07-.68-.22-1.38-.22-.55,0-1.22.26-1.81.49-.34.13-.66.26-.84.27-.03,0-.05.01-.06.02,0,.01.02.02.05.03.29.04.59.17.93.3.48.2,1.02.42,1.75.51.44.06.91.08,1.45.08s1.01-.03,1.38-.05c.64-.04,1.6-.46,2.18-.71.18-.08.37-.16.42-.17.03,0,.04-.02.04-.03,0-.01-.02-.02-.05-.02ZM46.38,20.32c-.38.08-1.34.25-2.86.27-1.58.02-2.75-.16-3.25-.26.34-.03.63-.08.89-.13.29-.05.55-.1.81-.1.33,0,.65.03.91.06.21.02.37.04.49.04.11,0,.25-.02.42-.03.25-.02.57-.06.88-.06.22,0,.5.04.8.09.3.05.6.09.9.11Z"/>
  </g>
</svg>